# xmcd CD database file
#
# Track frame offsets:
#	150
#	18410
#	36490
#	56752
#
# Disc length: 1049 seconds
#
# Revision: 1
# Processed by: cddbd v1.5.1PL0 Copyright (c) Steve Scherf et al.
# Submitted via: CDex 1.51
#
DISCID=31041704
DTITLE=Sarah McLachlan - Adia (Single Release)
DYEAR=1998
DGENRE=Country
TTITLE0=Adia (Album Version)
TTITLE1=Adia (Remix)
TTITLE2=Angel
TTITLE3=I Will Remember You
EXTD=YEAR: 1998
EXTT0=
EXTT1=
EXTT2=
EXTT3=
PLAYORDER=
